<svg id="Layer_3" enable-background="new 0 0 64 64" height="512" viewBox="0 0 64 64" width="512" xmlns="http://www.w3.org/2000/svg"><g><g><path d="m18 8v12h-4v-12h-3l5-6 5 6z" fill="#f8cf6a"/></g><g><path d="m5 44h22v18h-22z" fill="#bf8859"/></g><g><path d="m5 58.77c6.814-1.187 12-7.116 12-14.27 0-.169-.02-.333-.025-.5h-11.975z" fill="#d19e6d"/></g><g><path d="m27 44h-22c-1.657 0-3-1.343-3-3 0-1.657 1.343-3 3-3h22c1.657 0 3 1.343 3 3 0 1.657-1.343 3-3 3z" fill="#6b442b"/></g><g><path d="m15.448 38h-10.448c-1.657 0-3 1.343-3 3s1.343 3 3 3h11.975c-.074-2.153-.613-4.184-1.527-6z" fill="#956346"/></g><g><path d="m37 44h22v18h-22z" fill="#bf8859"/></g><g><path d="m37 58.77c6.814-1.187 12-7.116 12-14.27 0-.169-.02-.333-.025-.5h-11.975z" fill="#d19e6d"/></g><g><path d="m59 44h-22c-1.657 0-3-1.343-3-3 0-1.657 1.343-3 3-3h22c1.657 0 3 1.343 3 3 0 1.657-1.343 3-3 3z" fill="#6b442b"/></g><g><path d="m47.448 38h-10.448c-1.657 0-3 1.343-3 3s1.343 3 3 3h11.975c-.074-2.153-.613-4.184-1.527-6z" fill="#956346"/></g><g><path d="m16 38v-4c0-3.314-2.686-6-6-6v4c0 3.314 2.686 6 6 6z" fill="#94c049"/></g><g><path d="m13.047 28.838c-.894-.529-1.933-.838-3.047-.838v4c0 .751.144 1.466.396 2.129 1.604-1.006 2.674-2.786 2.674-4.819 0-.16-.01-.316-.023-.472z" fill="#a3d350"/></g><g><path d="m16 38v-4c0-3.314 2.686-6 6-6v4c0 3.314-2.686 6-6 6z" fill="#a3d350"/></g><g><path d="m48 18v-6c0-5.523-4.477-10-10-10v6c0 5.523 4.477 10 10 10z" fill="#536d26"/></g><g><path d="m44.69 6.845c0-.894-.13-1.756-.353-2.579-1.725-1.416-3.931-2.266-6.337-2.266v6c0 2.618 1.014 4.993 2.661 6.776 2.439-1.792 4.029-4.672 4.029-7.931z" fill="#739937"/></g><g><path d="m48 18v-6c0-5.523 4.477-10 10-10v6c0 5.523-4.477 10-10 10z" fill="#739937"/></g><g><path d="m59 63h-22c-.552 0-1-.447-1-1v-18c0-.553.448-1 1-1h22c.552 0 1 .447 1 1v18c0 .553-.448 1-1 1zm-21-2h20v-16h-20z"/></g><g><path d="m59 45h-22c-2.206 0-4-1.794-4-4s1.794-4 4-4h22c2.206 0 4 1.794 4 4s-1.794 4-4 4zm-22-6c-1.103 0-2 .897-2 2s.897 2 2 2h22c1.103 0 2-.897 2-2s-.897-2-2-2z"/></g><g><path d="m27 63h-22c-.552 0-1-.447-1-1v-18c0-.553.448-1 1-1h22c.552 0 1 .447 1 1v18c0 .553-.448 1-1 1zm-21-2h20v-16h-20z"/></g><g><path d="m27 45h-22c-2.206 0-4-1.794-4-4s1.794-4 4-4h22c2.206 0 4 1.794 4 4s-1.794 4-4 4zm-22-6c-1.103 0-2 .897-2 2s.897 2 2 2h22c1.103 0 2-.897 2-2s-.897-2-2-2z"/></g><g><path d="m48 19c-.552 0-1-.447-1-1v-6c0-6.065 4.935-11 11-11 .552 0 1 .447 1 1v6c0 6.065-4.935 11-11 11zm9-15.944c-4.494.499-8 4.319-8 8.944v4.944c4.494-.499 8-4.319 8-8.944z"/></g><g><path d="m48 19c-6.065 0-11-4.935-11-11v-6c0-.553.448-1 1-1 6.065 0 11 4.935 11 11v6c0 .553-.448 1-1 1zm-9-15.944v4.944c0 4.625 3.506 8.445 8 8.944v-4.944c0-4.625-3.506-8.445-8-8.944z"/></g><g><path d="m47 18h2v20h-2z"/></g><g><path d="m16 39c-.552 0-1-.447-1-1v-4c0-3.859 3.14-7 7-7 .552 0 1 .447 1 1v4c0 3.859-3.14 7-7 7zm5-9.899c-2.279.465-4 2.484-4 4.899v2.899c2.279-.465 4-2.484 4-4.899z"/></g><g><path d="m16 39c-3.86 0-7-3.141-7-7v-4c0-.553.448-1 1-1 3.86 0 7 3.141 7 7v4c0 .553-.448 1-1 1zm-5-9.899v2.899c0 2.415 1.721 4.435 4 4.899v-2.899c0-2.415-1.721-4.435-4-4.899z"/></g><g><path d="m18 21h-4c-.552 0-1-.447-1-1v-11h-2c-.388 0-.741-.225-.906-.576-.164-.351-.111-.766.138-1.065l5-6c.38-.455 1.156-.455 1.536 0l5 6c.249.299.302.714.138 1.064-.165.352-.518.577-.906.577h-2v11c0 .553-.448 1-1 1zm-3-2h2v-11c0-.553.448-1 1-1h.865l-2.865-3.438-2.865 3.438h.865c.552 0 1 .447 1 1z"/></g></g></svg>