<?xml version="1.0" encoding="iso-8859-1"?>
<!-- Generator: Adobe Illustrator 19.0.0, SVG Export Plug-In . SVG Version: 6.00 Build 0)  -->
<svg version="1.1" id="Capa_1" xmlns="http://www.w3.org/2000/svg" xmlns:xlink="http://www.w3.org/1999/xlink" x="0px" y="0px"
	 viewBox="0 0 512 512" style="enable-background:new 0 0 512 512;" xml:space="preserve">
<polygon style="fill:#D9D9D9;" points="287.659,343.868 204.032,260.326 219.392,245.052 207.275,232.934 164.608,275.601 
	176.725,287.718 192,272.358 275.541,355.985 "/>
<path style="fill:#FFA230;" d="M298.667,443.793H281.6V317.841l-85.931-171.776c-2.867-5.769-8.747-9.438-15.189-9.472H25.6
	c-4.71,0-8.533,3.823-8.533,8.533v196.267H0V145.126c0-14.14,11.46-25.6,25.6-25.6h154.88c12.902,0.026,24.687,7.322,30.464,18.859
	l87.723,175.36V443.793z"/>
<rect x="358.4" y="273.152" style="fill:#FDB62F;" width="145.067" height="136.533"/>
<rect x="409.6" y="273.152" style="fill:#FD7B2F;" width="42.667" height="51.2"/>
<path style="fill:#FDB62F;" d="M290.133,486.46h-256C15.283,486.46,0,471.176,0,452.326V341.393h145.067l68.267,42.667h34.133
	l42.667-42.667V486.46z"/>
<path style="fill:#D9D9D9;" d="M136.533,341.393h8.533c9.429,0,17.067-7.637,17.067-17.067l0,0c0-9.429-7.637-17.067-17.067-17.067
	H76.8v-76.8c0-9.429-7.637-17.067-17.067-17.067l0,0c-9.429,0-17.067,7.637-17.067,17.067v110.933H136.533z"/>
<rect x="290.133" y="8.619" style="fill:#FDB62F;" width="34.133" height="477.867"/>
<rect x="324.267" y="435.285" style="fill:#FFA230;" width="187.733" height="17.067"/>
<rect x="324.267" y="435.285" style="fill:#FA962A;" width="17.067" height="17.067"/>
<g>
	<circle style="fill:#126099;" cx="230.4" cy="443.819" r="59.733"/>
	<circle style="fill:#126099;" cx="51.2" cy="460.885" r="42.667"/>
</g>
<g>
	<circle style="fill:#E5E5E5;" cx="230.4" cy="443.819" r="17.067"/>
	<path style="fill:#E5E5E5;" d="M51.2,452.326L51.2,452.326c4.71,0,8.533,3.823,8.533,8.533l0,0c0,4.71-3.823,8.533-8.533,8.533l0,0
		c-4.71,0-8.533-3.823-8.533-8.533l0,0C42.667,456.141,46.49,452.326,51.2,452.326z"/>
</g>
<polygon style="fill:#FFA230;" points="358.4,386.876 358.4,409.66 503.467,409.66 503.467,324.326 "/>
<path d="M503.467,264.593H358.4c-4.71,0-8.533,3.823-8.533,8.533V409.66c0,4.71,3.823,8.533,8.533,8.533h145.067
	c4.71,0,8.533-3.823,8.533-8.533V273.126C512,268.407,508.177,264.593,503.467,264.593z M443.733,281.66v34.133h-25.6V281.66
	H443.733z M494.933,401.126h-128V281.66h34.133v42.667c0,4.71,3.823,8.533,8.533,8.533h42.667c4.71,0,8.533-3.823,8.533-8.533
	V281.66h34.133V401.126z"/>
<path d="M230.4,418.193c-14.14,0-25.6,11.46-25.6,25.6c0,14.14,11.46,25.6,25.6,25.6c14.14,0,25.6-11.46,25.6-25.6
	C256,429.653,244.54,418.193,230.4,418.193z M230.4,452.326c-4.71,0-8.533-3.823-8.533-8.533c0-4.71,3.823-8.533,8.533-8.533
	s8.533,3.823,8.533,8.533C238.933,448.503,235.11,452.326,230.4,452.326z"/>
<path d="M332.8,8.593c0-4.71-3.823-8.533-8.533-8.533h-34.133c-4.71,0-8.533,3.823-8.533,8.533v271.019l-70.656-141.227
	c-5.777-11.537-17.562-18.833-30.464-18.859H25.6c-14.14,0-25.6,11.46-25.6,25.6V460.86c0.06,28.279,23.04,51.149,51.311,51.081
	c14.473-0.034,28.262-6.195,37.948-16.947h96.171c28.356,24.849,71.484,21.999,96.333-6.357c0.085-0.102,0.179-0.205,0.265-0.299
	c0.862,3.814,4.198,6.554,8.107,6.656h34.133c4.71,0,8.533-3.823,8.533-8.533v-34.133H512V435.26H332.8V8.593z M281.6,361.958
	v36.864c-5.803-6.647-12.843-12.1-20.736-16.043L281.6,361.958z M25.6,136.593h154.88c6.443,0.034,12.322,3.703,15.189,9.472
	L281.6,317.841v20.053l-77.568-77.568l15.36-15.275l-12.117-12.117l-42.667,42.667l12.117,12.117L192,272.358l77.568,77.568
	l-25.6,25.6h-28.16l-52.821-32.939c4.907-4.813,7.671-11.392,7.68-18.261c0-14.14-11.46-25.6-25.6-25.6H85.333V230.46
	c0-14.14-11.46-25.6-25.6-25.6s-25.6,11.46-25.6,25.6v102.4H17.067V145.126C17.067,140.407,20.89,136.593,25.6,136.593z
	 M76.8,315.793h68.267c4.71,0,8.533,3.823,8.533,8.533c0,4.71-3.823,8.533-8.533,8.533H51.2v-102.4c0-4.71,3.823-8.533,8.533-8.533
	s8.533,3.823,8.533,8.533v76.8C68.267,311.97,72.09,315.793,76.8,315.793z M51.2,494.993c-18.85,0-34.133-15.283-34.133-34.133
	S32.35,426.726,51.2,426.726s34.133,15.283,34.133,34.133S70.05,494.993,51.2,494.993z M51.2,409.66
	c-12.604,0.026-24.764,4.71-34.133,13.141v-72.875h125.525l54.699,34.133c-32.879,18.449-44.578,60.058-26.129,92.937
	c0.171,0.307,0.35,0.623,0.529,0.93H99.413c9.429-26.658-4.548-55.91-31.206-65.34C62.746,410.658,56.994,409.668,51.2,409.66z
	 M230.4,494.993c-28.279,0-51.2-22.921-51.2-51.2c0-28.279,22.921-51.2,51.2-51.2s51.2,22.921,51.2,51.2
	C281.6,472.072,258.679,494.993,230.4,494.993z M315.733,477.926h-17.067v-460.8h17.067V477.926z"/>
<rect x="42.667" y="452.352" width="17.067" height="17.067"/>
<g>
</g>
<g>
</g>
<g>
</g>
<g>
</g>
<g>
</g>
<g>
</g>
<g>
</g>
<g>
</g>
<g>
</g>
<g>
</g>
<g>
</g>
<g>
</g>
<g>
</g>
<g>
</g>
<g>
</g>
</svg>
