<?xml version="1.0" encoding="iso-8859-1"?>
<!-- Generator: Adobe Illustrator 19.0.0, SVG Export Plug-In . SVG Version: 6.00 Build 0)  -->
<svg version="1.1" id="Capa_1" xmlns="http://www.w3.org/2000/svg" xmlns:xlink="http://www.w3.org/1999/xlink" x="0px" y="0px"
	 viewBox="0 0 512 512" style="enable-background:new 0 0 512 512;" xml:space="preserve">
<rect x="102.35" y="38.871" style="fill:#FFB125;" width="59.83" height="89.29"/>
<rect x="132.27" y="38.871" style="fill:#FF901D;" width="29.915" height="89.29"/>
<path style="fill:#FFB125;" d="M171.818,47.831H92.715c-1.236,0-2.239-1.002-2.239-2.239V22.907c0-1.236,1.002-2.239,2.239-2.239
	h79.103c1.236,0,2.239,1.002,2.239,2.239v22.686C174.057,46.829,173.055,47.831,171.818,47.831z"/>
<polygon style="fill:#E1EFFB;" points="432.32,164.845 247.54,41.927 62.759,164.845 62.759,456.228 432.404,456.228 
	432.404,164.845 "/>
<polygon style="fill:#CCDFED;" points="432.321,164.845 247.54,41.927 203.479,71.237 386.382,192.905 386.465,192.905 
	386.465,456.228 432.404,456.228 432.404,164.845 "/>
<path style="fill:#FF4C4C;" d="M28.204,214.199L244.458,70.345c1.893-1.259,4.356-1.259,6.248,0l216.253,143.854
	c6.09,4.051,14.016,4.051,20.106,0l0,0c10.797-7.182,10.797-23.043,0-30.225L250.706,26.745c-1.893-1.259-4.356-1.259-6.248,0
	L8.098,183.974c-10.797,7.182-10.797,23.043,0,30.225l0,0C14.188,218.25,22.114,218.25,28.204,214.199z"/>
<path style="fill:#FFB125;" d="M225.827,239.533H115.968c-4.576,0-8.286,3.71-8.286,8.286v208.514h126.431V247.819
	C234.113,243.242,230.403,239.533,225.827,239.533z"/>
<path style="fill:#FF901D;" d="M225.827,239.533h-63.215c4.576,0,8.286,3.71,8.286,8.286v208.514h63.216V247.819
	C234.113,243.242,230.403,239.533,225.827,239.533z"/>
<path style="fill:#2D5871;" d="M470.732,429.737H24.431c-7.344,0-13.298,5.954-13.298,13.298l0,0
	c0,7.344,5.954,13.298,13.298,13.298h446.301c7.344,0,13.298-5.954,13.298-13.298l0,0
	C484.03,435.691,478.076,429.737,470.732,429.737z"/>
<circle style="fill:#21D8DE;" cx="394.06" cy="373.39" r="117.94"/>
<path style="fill:#11B9C1;" d="M394.061,255.453c-7.861,0-15.539,0.776-22.969,2.243c54.14,10.688,94.97,58.421,94.97,115.696
	c0,57.276-40.83,105.008-94.97,115.697c7.43,1.467,15.109,2.243,22.969,2.243c65.136,0,117.939-52.803,117.939-117.939
	S459.197,255.453,394.061,255.453z"/>
<path style="fill:#F33939;" d="M489.881,211.896c0.354-0.353,0.684-0.72,1.003-1.094c0.078-0.092,0.156-0.184,0.232-0.278
	c0.321-0.394,0.628-0.795,0.91-1.209c0.018-0.027,0.034-0.054,0.052-0.081c0.268-0.397,0.514-0.804,0.747-1.217
	c0.053-0.094,0.106-0.187,0.157-0.281c0.239-0.442,0.462-0.89,0.662-1.347c0.012-0.027,0.022-0.055,0.033-0.082
	c0.19-0.441,0.358-0.889,0.511-1.341c0.028-0.083,0.057-0.166,0.084-0.249c0.156-0.483,0.295-0.971,0.409-1.464
	c0.004-0.018,0.007-0.036,0.011-0.054c0.111-0.484,0.199-0.972,0.27-1.463c0.009-0.062,0.019-0.124,0.028-0.186
	c0.07-0.515,0.12-1.032,0.145-1.551c0-0.005,0-0.01,0-0.014c0.025-0.519,0.026-1.039,0.007-1.559
	c-0.001-0.036-0.002-0.073-0.003-0.109c-0.044-1.068-0.182-2.132-0.413-3.18c-0.003-0.013-0.006-0.027-0.009-0.04
	c-0.963-4.332-3.51-8.367-7.654-11.124l-23.483-15.621l-3.854,6.254c-4.193,6.804-13.191,8.776-19.845,4.35L250.706,53.113
	c-1.893-1.259-4.356-1.259-6.248,0L28.204,196.967c-6.09,4.051-14.016,4.051-20.106,0l0,0c-2.613-1.738-4.588-3.988-5.936-6.497
	c-4.222,7.857-2.248,18.284,5.936,23.728l0,0c6.09,4.051,14.016,4.051,20.106,0L244.458,70.345c1.893-1.259,4.356-1.259,6.248,0
	l216.253,143.854c6.09,4.051,14.016,4.051,20.106,0l0,0c0.456-0.303,0.885-0.627,1.302-0.96c0.101-0.081,0.202-0.162,0.301-0.245
	c0.405-0.337,0.797-0.683,1.165-1.047C489.85,211.931,489.865,211.913,489.881,211.896z"/>
<path style="fill:#FFFFFF;" d="M405.108,363.65v-31.226c11.887,0.887,15.967,6.564,20.936,6.564c6.564,0,9.403-8.161,9.403-12.242
	c0-10.291-18.806-13.662-30.339-14.016v-4.613c0-2.307-3.016-4.436-6.033-4.436c-3.371,0-6.033,2.129-6.033,4.436v4.967
	c-17.742,2.307-34.42,12.065-34.42,34.598c0,22.71,18.275,29.63,34.42,35.662v35.307c-15.613-1.774-20.936-13.307-27.677-13.307
	c-5.5,0-9.936,7.452-9.936,12.42c0,9.936,16.145,21.467,37.613,22v4.968c0,2.306,2.661,4.436,6.033,4.436
	c3.016,0,6.033-2.13,6.033-4.436v-5.501c19.871-3.193,33.533-15.79,33.533-37.613C438.641,377.489,420.899,369.505,405.108,363.65z
	 M394.463,359.746c-8.161-3.193-14.194-6.564-14.194-14.37c0-6.743,5.323-11.001,14.194-12.42V359.746z M403.689,418.474v-30.871
	c7.629,3.37,13.306,7.63,13.306,16.322C416.995,412.264,411.495,416.877,403.689,418.474z"/>
<g>
</g>
<g>
</g>
<g>
</g>
<g>
</g>
<g>
</g>
<g>
</g>
<g>
</g>
<g>
</g>
<g>
</g>
<g>
</g>
<g>
</g>
<g>
</g>
<g>
</g>
<g>
</g>
<g>
</g>
</svg>
