<?xml version="1.0" encoding="iso-8859-1"?>
<!-- Generator: Adobe Illustrator 19.0.0, SVG Export Plug-In . SVG Version: 6.00 Build 0)  -->
<svg version="1.1" id="Capa_1" xmlns="http://www.w3.org/2000/svg" xmlns:xlink="http://www.w3.org/1999/xlink" x="0px" y="0px"
	 viewBox="0 0 512 512" style="enable-background:new 0 0 512 512;" xml:space="preserve">
<circle style="fill:#FFDC00;" cx="256" cy="256" r="256"/>
<path style="fill:#FFC000;" d="M512,256c0-8.33-0.412-16.563-1.19-24.69L356.5,77l-201,352.333l81.996,81.996
	C243.608,511.766,249.776,512,256,512C397.385,512,512,397.385,512,256z"/>
<rect x="155.5" y="77" style="fill:#333333;" width="201" height="352.33"/>
<rect x="255.67" y="77" style="fill:#1A1A1A;" width="100.83" height="352.33"/>
<rect x="172" y="101.5" style="fill:#35CCFF;" width="168" height="282"/>
<rect x="255.67" y="101.5" style="fill:#00BAFF;" width="84.33" height="282"/>
<circle style="fill:#1A1A1A;" cx="256" cy="404.5" r="12.5"/>
<path d="M256,392c-0.113,0-0.221,0.014-0.333,0.017v24.967c0.112,0.003,0.221,0.017,0.333,0.017c6.904,0,12.5-5.597,12.5-12.5
	S262.904,392,256,392z"/>
<polygon style="fill:#FF6838;" points="321.647,308.098 270.75,257.201 220.643,307.307 202.992,289.655 270.75,221.898 
	321.657,272.795 412.441,182.001 430.093,199.653 "/>
<polygon style="fill:#AE4E32;" points="365.857,166.319 365.857,191.282 403.16,191.282 321.657,272.795 321.647,308.098 
	420.694,209.052 420.694,246.792 445.657,246.792 445.657,166.319 "/>
<g>
</g>
<g>
</g>
<g>
</g>
<g>
</g>
<g>
</g>
<g>
</g>
<g>
</g>
<g>
</g>
<g>
</g>
<g>
</g>
<g>
</g>
<g>
</g>
<g>
</g>
<g>
</g>
<g>
</g>
</svg>
