<svg width="55" height="48" viewBox="0 0 55 48" fill="none" xmlns="http://www.w3.org/2000/svg">
<path d="M54.7168 24.4429C54.108 21.3953 52.5079 15.3079 52.5079 15.3079C52.5079 15.3079 51.5155 15.3454 51.0462 17.1179C50.9316 17.5496 50.8485 18.0832 50.819 18.7448L51.4686 23.1137C51.4686 23.1137 53.1335 33.6182 44.6091 36.3014C43.2503 36.7321 41.6371 36.9629 39.7134 36.9208C39.7134 36.9208 48.0187 31.7462 46.4227 25.8068C46.4227 25.8068 45.1818 27.1773 42.8177 29.4695C40.4503 31.7598 37.1534 32.9219 34.134 34.8001C31.113 36.6822 28.3376 42.214 29.2343 46.4257L29.2591 47.1547C29.2591 47.1547 30.9733 45.9435 33.8985 44.6352C33.9084 44.6312 33.9217 44.629 33.9333 44.6211C36.0379 43.8066 38.5758 43.0305 41.433 42.5746C41.433 42.5746 42.4901 42.5205 44.2607 41.6178C45.5734 41.209 47.9847 40.1144 50.9753 37.1522C55.3105 32.8571 55.3239 27.4944 54.7168 24.4429Z" fill="url(#paint0_linear_6_35)"/>
<path d="M49.3846 23.6525C49.3846 23.6525 50.8042 32.6443 44.2736 36.1183C44.2884 36.1123 44.3067 36.1081 44.3215 36.1021C52.7906 33.3935 51.1331 22.9307 51.1331 22.9307L50.4834 18.5618C50.5129 17.9002 50.5959 17.3665 50.7106 16.9349C50.537 16.266 50.4272 15.8485 50.4272 15.8485C50.4272 15.8485 49.9651 15.8694 49.525 16.4388C49.1598 16.908 48.8056 17.7549 48.7383 19.2855L49.3846 23.6525Z" fill="url(#paint1_linear_6_35)"/>
<path d="M42.9767 36.2628C43.3293 36.1587 43.6652 36.0454 43.986 35.9191C43.9711 35.9251 43.9529 35.9293 43.938 35.9352C50.4686 32.4612 49.0489 23.4694 49.0489 23.4694L48.4027 19.1024C48.47 17.5719 48.8242 16.7249 49.1894 16.2558C48.7255 16.4781 47.9318 17.2031 47.7793 19.5483L48.336 23.9324C48.336 23.9324 49.5766 32.9582 42.9767 36.2628Z" fill="url(#paint2_linear_6_35)"/>
<path d="M20.866 34.8001C17.8466 32.9219 14.5497 31.7598 12.1822 29.4695C9.81815 27.1773 8.57724 25.8068 8.57724 25.8068C6.98127 31.7462 15.2866 36.9208 15.2866 36.9208C13.3629 36.9629 11.7497 36.7321 10.3909 36.3014C1.86646 33.6182 3.53134 23.1137 3.53134 23.1137L4.18095 18.7448C4.15149 18.0832 4.0684 17.5496 3.95381 17.1179C3.48451 15.3454 2.49205 15.3079 2.49205 15.3079C2.49205 15.3079 0.891986 21.3953 0.283227 24.4429C-0.32391 27.4944 -0.310551 32.8571 4.02466 37.1522C7.01529 40.1144 9.42661 41.209 10.7393 41.6178C12.5099 42.5205 13.567 42.5746 13.567 42.5746C16.4242 43.0305 18.962 43.8066 21.0667 44.6211C21.0782 44.629 21.0915 44.6312 21.1014 44.6352C24.0267 45.9435 25.7409 47.1547 25.7409 47.1547L25.7657 46.4257C26.6623 42.214 23.887 36.6822 20.866 34.8001Z" fill="url(#paint3_linear_6_35)"/>
<path d="M3.86696 22.9307C3.86696 22.9307 2.20941 33.3935 10.6785 36.1021C10.6933 36.1081 10.7116 36.1123 10.7264 36.1183C4.19576 32.6443 5.61543 23.6525 5.61543 23.6525L6.26172 19.2855C6.19446 17.7549 5.84022 16.908 5.47501 16.4388C5.03486 15.8694 4.57274 15.8485 4.57274 15.8485C4.57274 15.8485 4.46305 16.266 4.28942 16.9349C4.40406 17.3665 4.48707 17.9002 4.51656 18.5618L3.86696 22.9307Z" fill="url(#paint4_linear_6_35)"/>
<path d="M5.95101 23.4694C5.95101 23.4694 4.53133 32.4612 11.062 35.9352C11.0471 35.9293 11.0289 35.9251 11.014 35.9191C11.3347 36.0454 11.6706 36.1587 12.0233 36.2628C5.42341 32.9582 6.66397 23.9324 6.66397 23.9324L7.22069 19.5483C7.0681 17.2031 6.27448 16.4781 5.81055 16.2558C6.17576 16.7249 6.53 17.5719 6.5973 19.1024L5.95101 23.4694Z" fill="url(#paint5_linear_6_35)"/>
<path d="M42.9767 10.8073C42.9767 4.04244 38.0587 0 33.3042 0C30.3921 0 28.2846 1.53363 27.5 4.05932C26.7154 1.53363 24.6078 0 21.6957 0C16.9412 0 12.0233 4.04244 12.0233 10.8073C12.0233 22.6057 26.7127 31.949 27.3382 32.3409L27.5 32.4424L27.6618 32.3409C28.2872 31.949 42.9767 22.6057 42.9767 10.8073ZM27.5 31.5625C25.8779 30.4981 12.6962 21.5113 12.6962 10.8073C12.6962 3.88296 17.9588 0.768401 21.6957 0.768401C24.339 0.768401 27.1635 2.25084 27.1635 6.41144H27.8364C27.8364 2.25084 30.6609 0.768401 33.3042 0.768401C35.4719 0.768401 37.6774 1.70884 39.3551 3.3485C40.7002 4.66318 42.3038 7.02451 42.3038 10.8073C42.3038 21.5066 29.1219 30.4976 27.5 31.5625Z" fill="url(#paint6_linear_6_35)"/>
<path d="M29.3351 16.8636C28.8028 17.5479 28.3299 18.3833 27.9675 19.2707C27.6892 18.0286 27.2305 16.816 26.6583 15.8073C27.2082 11.6512 25.644 7.2116 14.6708 8.01272C17.672 9.67676 17.4176 20.413 25.6241 18.1211C24.0598 13.6919 19.9702 10.6631 18.2159 9.84819C22.863 11.7594 25.2636 14.61 26.4105 17.163C26.4105 17.163 26.4106 17.1627 26.4106 17.1625C27.0502 18.8649 27.4765 20.9302 27.1262 23.1721C26.8974 24.6366 27.7036 24.8902 28.0133 23.7892C28.0297 23.7307 28.0395 23.6678 28.0543 23.6082C28.0562 23.6002 28.0578 23.592 28.0597 23.584C28.2334 22.867 28.2914 22.0707 28.2456 21.242C28.4575 20.0343 28.8918 18.9601 29.3913 18.0435C29.3913 18.0437 29.3913 18.0438 29.3913 18.0438C30.647 16.0584 32.994 14.0059 37.1308 13.0764C35.5586 13.5061 31.7663 15.4605 29.947 18.9681C36.6133 22.1085 37.6091 13.0117 40.3291 12.0488C31.1601 9.75952 29.3397 13.2757 29.3351 16.8636Z" fill="url(#paint7_linear_6_35)"/>
<defs>
<linearGradient id="paint0_linear_6_35" x1="42.0316" y1="15.3079" x2="42.0316" y2="47.1547" gradientUnits="userSpaceOnUse">
<stop stop-color="#EE05FD"/>
<stop offset="1" stop-color="#FFCD71"/>
</linearGradient>
<linearGradient id="paint1_linear_6_35" x1="47.7689" y1="15.8485" x2="47.7689" y2="36.1183" gradientUnits="userSpaceOnUse">
<stop stop-color="#EE05FD"/>
<stop offset="1" stop-color="#FFCD71"/>
</linearGradient>
<linearGradient id="paint2_linear_6_35" x1="46.0831" y1="16.2558" x2="46.0831" y2="36.2628" gradientUnits="userSpaceOnUse">
<stop stop-color="#EE05FD"/>
<stop offset="1" stop-color="#FFCD71"/>
</linearGradient>
<linearGradient id="paint3_linear_6_35" x1="12.9684" y1="15.3079" x2="12.9684" y2="47.1547" gradientUnits="userSpaceOnUse">
<stop stop-color="#EE05FD"/>
<stop offset="1" stop-color="#FFCD71"/>
</linearGradient>
<linearGradient id="paint4_linear_6_35" x1="7.2311" y1="15.8485" x2="7.2311" y2="36.1183" gradientUnits="userSpaceOnUse">
<stop stop-color="#EE05FD"/>
<stop offset="1" stop-color="#FFCD71"/>
</linearGradient>
<linearGradient id="paint5_linear_6_35" x1="8.91693" y1="16.2558" x2="8.91693" y2="36.2628" gradientUnits="userSpaceOnUse">
<stop stop-color="#EE05FD"/>
<stop offset="1" stop-color="#FFCD71"/>
</linearGradient>
<linearGradient id="paint6_linear_6_35" x1="27.5" y1="0" x2="27.5" y2="32.4424" gradientUnits="userSpaceOnUse">
<stop stop-color="#EE05FD"/>
<stop offset="1" stop-color="#FFCD71"/>
</linearGradient>
<linearGradient id="paint7_linear_6_35" x1="27.5" y1="7.91824" x2="27.5" y2="24.4703" gradientUnits="userSpaceOnUse">
<stop stop-color="#EE05FD"/>
<stop offset="1" stop-color="#FFCD71"/>
</linearGradient>
</defs>
</svg>
