<svg width="633" height="729" viewBox="0 0 633 729" fill="none" xmlns="http://www.w3.org/2000/svg">
<g clip-path="url(#clip0_3_27)">
<rect width="633" height="729" fill="#D9D9D9"/>
<circle cx="540.5" cy="50.5" r="150.5" fill="url(#paint0_linear_3_27)"/>
<ellipse cx="440" cy="243.5" rx="211" ry="207.5" fill="url(#paint1_linear_3_27)"/>
<ellipse cx="601" cy="749.5" rx="211" ry="207.5" fill="url(#paint2_linear_3_27)"/>
<ellipse cx="390" cy="551.5" rx="211" ry="207.5" fill="url(#paint3_linear_3_27)"/>
<ellipse cx="583" cy="394.5" rx="211" ry="207.5" fill="url(#paint4_linear_3_27)"/>
<ellipse cx="97" cy="633.5" rx="211" ry="207.5" fill="url(#paint5_linear_3_27)"/>
<ellipse cx="193" cy="216" rx="307" ry="302" fill="url(#paint6_linear_3_27)"/>
</g>
<defs>
<linearGradient id="paint0_linear_3_27" x1="540.5" y1="-100" x2="540.5" y2="201" gradientUnits="userSpaceOnUse">
<stop stop-color="#02D4E1"/>
<stop offset="1" stop-color="#EE05FD"/>
</linearGradient>
<linearGradient id="paint1_linear_3_27" x1="440" y1="36" x2="440" y2="451" gradientUnits="userSpaceOnUse">
<stop stop-color="#02D4E1"/>
<stop offset="1" stop-color="#EE05FD"/>
</linearGradient>
<linearGradient id="paint2_linear_3_27" x1="601" y1="542" x2="601" y2="957" gradientUnits="userSpaceOnUse">
<stop stop-color="#02D4E1"/>
<stop offset="1" stop-color="#EE05FD"/>
</linearGradient>
<linearGradient id="paint3_linear_3_27" x1="390" y1="344" x2="390" y2="759" gradientUnits="userSpaceOnUse">
<stop stop-color="#02D4E1"/>
<stop offset="1" stop-color="#EE05FD"/>
</linearGradient>
<linearGradient id="paint4_linear_3_27" x1="583" y1="187" x2="583" y2="602" gradientUnits="userSpaceOnUse">
<stop stop-color="#02D4E1"/>
<stop offset="1" stop-color="#EE05FD"/>
</linearGradient>
<linearGradient id="paint5_linear_3_27" x1="97" y1="426" x2="97" y2="841" gradientUnits="userSpaceOnUse">
<stop stop-color="#02D4E1"/>
<stop offset="1" stop-color="#EE05FD"/>
</linearGradient>
<linearGradient id="paint6_linear_3_27" x1="193" y1="-86" x2="193" y2="518" gradientUnits="userSpaceOnUse">
<stop stop-color="#EE05FD"/>
<stop offset="1" stop-color="#FFCD71"/>
</linearGradient>
<clipPath id="clip0_3_27">
<rect width="633" height="729" fill="white"/>
</clipPath>
</defs>
</svg>
